<mxfile host="app.diagrams.net" modified="2024-03-08T11:07:37.543Z" agent="Mozilla/5.0 (Windows NT 10.0; Win64; x64) AppleWebKit/537.36 (KHTML, like Gecko) Chrome/122.0.0.0 Safari/537.36" etag="WZ8bPwj-uy-BvZfSf-_G" version="24.0.2" type="device">
  <diagram name="Page-1" id="pwv7V8d7MobYRBlFnpd2">
    <mxGraphModel dx="1633" dy="834" grid="0" gridSize="10" guides="1" tooltips="1" connect="1" arrows="1" fold="1" page="1" pageScale="1" pageWidth="1700" pageHeight="1100" math="0" shadow="0">
      <root>
        <mxCell id="0" />
        <mxCell id="1" parent="0" />
      </root>
    </mxGraphModel>
  </diagram>
</mxfile>
